<svg width="256" height="160" viewBox="0 0 256 160" fill="none" xmlns="http://www.w3.org/2000/svg">
  <ellipse cx="128" cy="135" rx="82" ry="14" fill="#000000" fill-opacity="0.16"/>
  <g>
    <path d="M64 92C64 85.3726 69.3726 80 76 80H181C191.493 80 201.307 85.1885 207.215 93.8738L214 103.848V112C214 118.627 208.627 124 202 124H64V92Z" fill="#F4F7FA"/>
    <path d="M64 92C64 85.3726 69.3726 80 76 80H181C191.493 80 201.307 85.1885 207.215 93.8738L214 103.848V112C214 118.627 208.627 124 202 124H64V92Z" stroke="#CAD3DC" stroke-width="3"/>
    <path d="M88 77C88 68.7157 94.7157 62 103 62H153.317C162.159 62 170.476 66.1421 175.778 73.1903L184 84H88V77Z" fill="#1E2329"/>
    <path d="M100 69H123V84H92V77C92 72.5817 95.5817 69 100 69Z" fill="#B8D9F4"/>
    <path d="M129 69H151.198C157.317 69 163.167 71.5725 167.317 76.0925L176 84H129V69Z" fill="#DCEFFC"/>
    <path d="M118 88H122V121H118V88Z" fill="#D2DBE4"/>
    <path d="M168 88H172V121H168V88Z" fill="#D2DBE4"/>
    <rect x="70" y="98" width="10" height="8" rx="4" fill="#FF6E61"/>
    <rect x="197" y="98" width="12" height="8" rx="4" fill="#A5D9FF"/>
    <rect x="78" y="120" width="30" height="4" rx="2" fill="#E7EDF2"/>
    <rect x="146" y="120" width="44" height="4" rx="2" fill="#E7EDF2"/>
    <circle cx="92" cy="126" r="18" fill="#1E2227"/>
    <circle cx="92" cy="126" r="9" fill="#5D6670"/>
    <circle cx="182" cy="126" r="18" fill="#1E2227"/>
    <circle cx="182" cy="126" r="9" fill="#5D6670"/>
  </g>
</svg>
